<svg xmlns="http://www.w3.org/2000/svg" width="658" height="140" viewBox="0 0 658 140"><g fill="none" transform="translate(2 36)"><path fill="#B4DE4D" d="M525.708506,26.0886345 C530.695187,37.2962854 528.071192,50.4291945 519.160294,58.861979 C510.249395,67.2947636 496.988006,69.1949082 486.066326,63.6038146 C475.144646,58.0127209 468.936048,46.1453809 470.57269,33.988714 C492.627017,32.8863773 485.918826,17.8211095 497.129775,0 C497.129775,0 453.57248,3.03142584 466.345611,33.0701001 C466.345611,33.0701001 469.102402,13.5036242 484.724216,9.00241614 C476.55451,13.7796449 470.731787,21.7290828 468.642937,30.9572882 C464.50055,44.2549809 469.779912,58.6785381 481.529238,66.1634942 C493.278563,73.6484503 508.586781,72.3402951 518.894797,62.9704413 C529.202812,53.6005875 531.956659,38.4905569 525.616613,26.0886345 L525.708506,26.0886345 Z"/><path fill="#DD2F6E" d="M500.003319,0 C498.880153,1.81804244 497.876901,3.70785588 497,5.65731724 C506.177906,4.92385251 515.231962,8.15113076 521.888356,14.5286616 C528.54475,20.9061925 532.171105,29.8280924 531.856707,39.0537383 C531.820685,57.3276814 517.397831,72.3117908 499.184232,72.9976418 C519.289536,73.2244164 535.771463,57.0671748 535.997648,36.9094326 C536.223833,16.7516905 520.108623,0.226774599 500.003319,0 Z"/><path fill="#E71D6B" d="M525,44.2215775 C524.951701,42.7420874 523.730523,41.5536828 522.210232,41.5066797 L519.141487,41.5066797 L519.141487,34.9004284 C519.141487,33.8144693 518.490542,33 517.653611,33 C516.816681,33 516.258727,33.8144693 516.258727,34.9004284 L516.258727,41.5971763 L510.307222,41.5971763 L510.307222,34.9004284 C510.307222,33.9049659 509.656277,33 508.819346,33 C507.982416,33 507.424462,33.9049659 507.424462,34.990925 L507.424462,41.5971763 L504.355718,41.5971763 C502.814971,41.5971763 501.56595,42.8126774 501.56595,44.3120741 L501.56595,44.3120741 C501.616159,45.8259986 502.892225,47.0277601 504.44871,47.0269718 L504.913671,47.0269718 C505.750602,54.7191822 514.212897,58.3390459 508.726354,60.0584811 C501.018133,62.3217288 492.657298,60.6714398 486.464365,55.6643366 C480.271431,50.6572335 477.072195,42.9609883 477.945915,35.1719182 L474.04024,36.3483739 C473.508727,45.6419431 478.274567,54.466347 486.441665,59.3107902 C494.608763,64.1552333 504.852343,64.2339034 513.09699,59.5155016 C517.617509,56.9623665 520.672272,52.5198949 521.373302,47.4794548 L521.931255,47.4794548 C522.678888,47.5050074 523.403835,47.2271883 523.932818,46.7124025 C524.4618,46.1976167 524.74728,45.4921255 524.721023,44.764557 L525,44.2215775 Z"/><path fill="#A8A8A8" d="M.144015859 36.5920661.144015859 29.5941162C-.264609292 23.2914386 1.88560805 17.085328 6.12869948 12.3206955 10.4416129 7.99400824 16.4591549 5.70075207 22.6319179 6.03139869 28.8992482 5.77753138 34.997827 8.05168881 39.4978445 12.3206955 42.7332217 15.9236988 44.3362234 20.653535 43.9410187 25.4307789L33.3318068 25.4307789C33.3318068 19.1414821 29.8860799 15.9525429 22.994626 15.9525429 21.1444469 15.9648891 19.3303347 16.4537695 17.7353586 17.3698492 16.4660441 18.018633 15.3531218 18.9246369 14.4709857 20.0272985 13.701862 21.4150066 13.1515996 22.9081924 12.8387993 24.4563808 12.5370173 26.0976938 12.3251362 27.7535736 12.2040601 29.4169529 12.2040601 30.7456776 12.2040601 32.5173105 12.2040601 34.8204332 12.2040601 37.123556 12.2040601 38.5408623 12.2040601 39.2495154 12.2040601 39.9581686 12.2040601 41.2868933 12.2040601 43.0585262 12.2687778 44.3254505 12.5129051 45.5775019 12.9294763 46.7789552 12.9294763 47.4876084 13.6548925 48.4620065 14.1989547 49.6135679 14.6450441 50.6398707 15.4052087 51.5062357 16.3752033 52.0938539 18.6686394 53.4566529 21.3078709 54.1626005 23.9920733 54.1312318 28.2432055 54.4197194 32.2265824 52.0849223 33.966546 48.2848432L33.966546 43.9443426 27.3471232 43.9443426 27.3471232 35.0861781 43.8503417 35.0861781 43.8503417 52.0938539C42.3047592 55.85056 39.4886174 58.9767712 35.8707635 60.9520184 32.0526632 62.9450699 27.7763158 63.951336 23.4480112 63.8752127 16.6470785 64.6054391 9.900843 62.101109 5.31260626 57.1430077 1.27210828 51.0558077-.548879843 43.8153384.144015859 36.5920661L.144015859 36.5920661ZM115 64 101.853836 64 90.2489472 42.8987637 82.0892594 42.8987637 82.0892594 64 71.0283493 64 71.0283493 19.4826237C70.8077554 16.2455237 71.8810576 13.0515111 74.0202349 10.5791485 76.7881364 8.1133075 80.442192 6.83172775 84.1745129 7.01775839L93.7848118 7.01775839C98.7980073 6.8190301 103.670973 8.66904559 107.2444 12.1276752 110.817828 15.5863048 112.772271 20.3443641 112.642757 25.2698827 112.78756 28.978013 111.706136 32.6325443 109.560208 35.6869487 107.700311 38.3141279 105.078217 40.3306924 102.035163 41.4742076L115 64ZM99.3152669 31.1461763C100.814839 29.4772207 101.623484 27.3172125 101.581847 25.0918132 101.66612 22.8861802 100.850199 20.7387883 99.3152669 19.1264847 97.6959703 17.6412413 95.5464213 16.8416429 93.3314959 16.9006159L87.3477248 16.9006159C83.9931865 16.9006159 82.361249 18.5922762 82.361249 21.9755968L82.361249 33.6391494 93.0595063 33.6391494C95.4198222 33.7708067 97.7158172 32.8558334 99.3152669 31.1461763L99.3152669 31.1461763ZM180 63.9023375 159.074879 63.9023375C154.153475 64.3599058 149.216109 63.2006976 145.063344 60.6126711 142.03894 57.4407845 140.592471 53.158035 141.099555 48.876564L141.099555 7 180 7 180 16.8689992 152.345655 16.8689992 152.345655 30.2943944 171.519334 30.2943944 170.689704 40.1633936 152.253474 40.1633936 152.253474 48.0763749C152.06669 49.7896643 152.63539 51.4997523 153.820553 52.7885997 155.534582 53.7919687 157.541054 54.2289647 159.535785 54.0333384L179.631275 54.0333384 180 63.9023375ZM244.544478 63.9023375 223.863763 63.9023375C218.999842 64.3599058 214.120145 63.2006976 210.015884 60.6126711 207.026805 57.4407845 205.597231 53.158035 206.098392 48.876564L206.098392 7 244.544478 7 244.544478 16.8689992 217.941973 16.8689992 217.941973 30.2943944 236.162867 30.2943944 235.342926 40.1633936 217.941973 40.1633936 217.941973 48.0763749C217.757371 49.7896643 218.319429 51.4997523 219.490749 52.7885997 221.184757 53.7919687 223.167794 54.2289647 225.139226 54.0333384L245 54.0333384 244.544478 63.9023375ZM318 9 318 60.5555556C318.016948 62.2193225 317.427256 63.8357088 316.334288 65.1203704 315.403135 66.2874677 313.972289 66.979594 312.448492 67 308.357986 66.7039455 304.784225 64.2146285 303.196596 60.5555556L282.564869 29.4969136 282.564869 66.2839506 271 66.2839506 271 9 282.102275 9 306.43476 46.7716049 306.43476 9 318 9ZM383.961841 46.6438623C384.15897 51.5953246 381.881543 56.3327928 377.851722 59.3540364 373.384149 62.5885247 367.908072 64.2210675 362.348435 63.9759179 357.261176 63.9476871 352.278619 62.564604 347.939498 59.9762127 345.563931 58.504651 343.591963 56.4911867 342.194163 54.1099785 340.682162 51.3838193 339.927652 48.3197797 340.005463 45.2217449L350.401785 44.7773332C350.308287 47.4975175 351.740961 50.0517779 354.140813 51.4435084 356.632106 53.0352214 359.552082 53.8704317 362.530827 53.8433315 369.370512 53.8433315 372.744757 51.5323908 372.744757 46.821627 372.744757 42.1108631 370.464862 40.6887458 365.813876 40.0665694L356.694296 39.0888637C352.448099 38.6813313 348.434827 37.0049899 345.203624 34.2892175 342.265743 31.2526835 340.747383 27.1670347 341.008617 23.0011608 340.936591 18.245122 343.166568 13.7336564 347.02754 10.8242808 351.256914 7.58438574 356.514907 5.88666304 361.892456 6.02463461 367.213015 5.77834693 372.449904 7.38517411 376.666177 10.5576338 380.258416 13.3989778 382.309926 17.6929148 382.229121 22.2012198L372.015191 22.7345138C371.357012 18.4127956 367.361748 15.3366058 362.89561 15.7128093 360.110271 15.5503404 357.349294 16.3012994 355.052771 17.8459853 353.319997 18.9020452 352.255418 20.7429001 352.225701 22.7345138 352.138517 24.4412647 352.882026 26.0881917 354.232009 27.1786306 355.676722 28.3579716 357.460823 29.0721386 359.338974 29.2229244L368.458554 30.2006301C372.791831 30.2636693 376.907704 32.0612202 379.840036 35.1713353 382.772367 38.2814504 384.262931 42.4302482 383.961841 46.6438623L383.961841 46.6438623ZM439.29958 41.390028 449.940768 41.390028C450.378982 47.4508429 448.372984 53.4399965 444.344971 58.0969649 440.175663 62.1777176 434.39054 64.315765 428.474923 63.9621662 413.522219 63.9621662 406 55.0754976 406 38.279694L406 33.4808929C406 19.9731567 409.852844 11.5308215 417.558532 8.15388746 420.982037 6.64644801 424.715904 5.91694004 428.474923 6.021087 434.057569 5.78151656 439.528129 7.59034346 443.794564 11.0864881 447.953028 14.7475152 450.150353 20.0527275 449.757299 25.4828912L439.024377 25.4828912C438.6241 22.8626642 437.480843 20.4015131 435.721939 18.3735563 433.782927 16.5884301 431.136175 15.7121222 428.474923 15.9741558 425.219806 15.7241828 422.041035 17.0155438 419.943626 19.4399566 418.253817 22.1031525 417.45297 25.206401 417.650266 28.3266251 417.541196 30.0430899 417.541196 31.7644282 417.650266 33.4808929L417.650266 38.4574273C417.225051 42.8160828 418.117475 47.2004639 420.218829 51.0764967 422.370762 53.4109823 425.530876 54.6289292 428.750126 54.3645641 431.73149 54.6665841 434.67711 53.5384414 436.639283 51.3430968 438.364768 48.2906199 439.279004 44.8701545 439.29958 41.390028L439.29958 41.390028ZM597 67 583.969521 67 572.567852 45.4997163 564.423803 45.4997163 564.423803 67 553.112624 67 553.112624 21.8313368C552.642068 18.3308269 553.659163 14.7933541 555.917796 12.0749056 558.814557 9.73604267 562.533275 8.66138123 566.233592 9.09377381L575.825472 9.09377381C580.829059 8.89213813 585.692685 10.7692192 589.259264 14.2784484 592.825843 17.7876776 594.776541 22.6153471 594.647275 27.6129257 594.893449 31.1964787 594.00727 34.7668336 592.11357 37.8210436 590.250388 40.5172164 587.594317 42.5690543 584.512458 43.6929698L597 67ZM581.073859 33.5751893C582.472778 31.8422729 583.18168 29.6548046 583.064627 27.4322511 583.188149 25.2150187 582.366343 23.0490996 580.802391 21.4699875 579.236265 19.8755888 577.064694 19.0215595 574.830088 19.121217L569.491211 19.121217C568.081859 18.9351449 566.666854 19.4211848 565.670549 20.4335763 564.674244 21.4459679 564.212504 22.8669743 564.423803 24.2704446L564.423803 36.1046344 575.101557 36.1046344C577.368537 36.1818875 579.554083 35.2562447 581.073859 33.5751893L581.073859 33.5751893ZM653 63.8997594 632.159663 63.8997594C627.235989 64.364393 622.294479 63.2046761 618.143153 60.610242 615.095075 57.4475769 613.615485 53.1680388 614.085742 48.8746667L614.085742 7 653 7 653 16.868552 625.335836 16.868552 625.335836 30.293339 644.792965 30.293339 643.96304 40.161891 625.520263 40.161891 625.520263 48.0745138C625.307851 49.8061829 625.917807 51.537737 627.180113 52.7865251 628.89475 53.7898486 630.901935 54.2268248 632.897374 54.0312073L652.907786 54.0312073 653 63.8997594Z"/></g></svg>